<svg xmlns="http://www.w3.org/2000/svg" version="1.1" xmlns:xlink="http://www.w3.org/1999/xlink" xmlns:svgjs="http://svgjs.com/svgjs" width="1920" height="1080" preserveAspectRatio="none" viewBox="0 0 1920 1080"><g mask="url(&quot;#SvgjsMask1628&quot;)" fill="none"><rect width="1920" height="1080" x="0" y="0" fill="rgba(0, 0, 0, 1)"></rect><path d="M95 1080L1175 0L1820 0L740 1080z" fill="url(#SvgjsLinearGradient1629)"></path><path d="M663.6 1080L1743.6 0L2637.6 0L1557.6 1080z" fill="url(#SvgjsLinearGradient1629)"></path><path d="M1821 1080L741 0L0 0L1080 1080z" fill="url(#SvgjsLinearGradient1630)"></path><path d="M1242.4 1080L162.4000000000001 0L-713.5999999999999 0L366.4000000000001 1080z" fill="url(#SvgjsLinearGradient1630)"></path><path d="M1236.0809911487222 1080L1920 396.0809911487222L1920 1080z" fill="url(#SvgjsLinearGradient1629)"></path><path d="M0 1080L683.9190088512778 1080L 0 396.0809911487222z" fill="url(#SvgjsLinearGradient1630)"></path></g><defs><mask id="SvgjsMask1628"><rect width="1920" height="1080" fill="#ffffff"></rect></mask><linearGradient x1="0%" y1="100%" x2="100%" y2="0%" id="SvgjsLinearGradient1629"><stop stop-color="rgba(255, 255, 255, 0.02)" offset="0"></stop><stop stop-opacity="0" stop-color="rgba(255, 255, 255, 0.02)" offset="0.66"></stop></linearGradient><linearGradient x1="100%" y1="100%" x2="0%" y2="0%" id="SvgjsLinearGradient1630"><stop stop-color="rgba(255, 255, 255, 0.02)" offset="0"></stop><stop stop-opacity="0" stop-color="rgba(255, 255, 255, 0.02)" offset="0.66"></stop></linearGradient></defs></svg>